# xmcd CD database file
#
# Track frame offsets:
#	150
#	25722
#	42886
#	72908
#	98585
#	116630
#	137024
#	162044
#
# Disc length: 2590 seconds
#
# Revision: 0
# Processed by: cddbd v1.4PL0 Copyright (c) Steve Scherf et al.
# Submitted via: CDex 1.50beta10
#
DISCID=5d0a1c08
DTITLE=WOLFGANG DAUNER TRIO - DREAM TALK
DYEAR=1900
DGENRE=Jazz
TTITLE0=DAMMERUNG
TTITLE1=FREE FALL
TTITLE2=YESTERDAYS
TTITLE3=ZEHN NOTIZEN
TTITLE4=SOUL EYES
TTITLE5=BIRD FOOD
TTITLE6=A LONG NGHT
TTITLE7=DREAM TALK
EXTD=
EXTT0=
EXTT1=
EXTT2=
EXTT3=
EXTT4=
EXTT5=
EXTT6=
EXTT7=
PLAYORDER=
